<svg xmlns="http://www.w3.org/2000/svg" viewBox="0 0 2560 1101.63"><defs><style>.cls-1{isolation:isolate;}.cls-2{fill:#fff;mix-blend-mode:luminosity;}.cls-3{font-size:320px;font-family:Verdana-Bold, Verdana;font-weight:700;}.cls-3,.cls-4{fill:#242424;}</style></defs><g class="cls-1"><g id="Шар_2" data-name="Шар 2"><g id="Шар_1-2" data-name="Шар 1"><rect class="cls-2" width="2560" height="1101"/><text class="cls-3" transform="matrix(0, -0.91, 1, 0, 1279.3, 1100.68)">МЕБЛІ</text><text class="cls-3" transform="translate(1317.71 1004.6)">СТИЛЬ</text><path class="cls-4" d="M152.94,388.38,306.69,262.64l313.7,362.72L850.23,444s91.63,96.1,93.18,116.16S572.25,847.83,572.25,847.83Z"/><polygon class="cls-4" points="261.71 942.81 441.42 731.4 470.05 775.83 303.06 971.91 261.71 942.81"/><polygon class="cls-4" points="689.11 784.51 733.54 754.38 888.26 952.62 845.37 979.57 689.11 784.51"/><path class="cls-4" d="M152.94,388.38l6.64,16.73L572.25,847.83l371.16-283.4S878.07,434.89,850.23,444,629.58,618.11,629.58,618.11L312.77,262.64Z"/><polygon class="cls-4" points="436.35 731.4 470.05 770.72 311.75 971.91 261.71 947.4 436.35 731.4"/><polygon class="cls-4" points="689.11 779.91 733.54 754.38 888.26 946.38 845.37 979.57 689.11 779.91"/></g></g></g></svg>